<svg xmlns="http://www.w3.org/2000/svg" viewBox="0 0 558 164.75"><defs><style>.cls-1{fill:#000105;}.cls-2{font-size:79.66px;fill:#fff;font-family:Friday13SH, Friday13SH;}.cls-3,.cls-4,.cls-5{fill:none;stroke:#fff;}.cls-3,.cls-4{stroke-miterlimit:10;stroke-width:4px;}.cls-4,.cls-5{stroke-linecap:round;}.cls-5{stroke-linejoin:round;stroke-width:2px;}</style></defs><title>Ресурс 4</title><g id="Слой_2" data-name="Слой 2"><g id="Слой_2-2" data-name="Слой 2"><rect class="cls-1" width="558" height="164.75"/><text class="cls-2" transform="translate(188.06 113.18)">Tort Tatoo</text><path class="cls-3" d="M125.32,83c-8.25.93-14.12,8.89-13.12,17.76-1-8.87-8.5-15.32-16.75-14.38S81.33,95.22,82.34,104.1c-1-8.88-8.51-15.33-16.76-14.39S51.46,98.6,52.47,107.48c-1-8.88-8.51-15.33-16.75-14.39S21.6,102,22.6,110.86l2.31,20.34,119.46-13.53-2.3-20.34C141.06,88.45,133.56,82,125.32,83Z"/><line class="cls-4" x1="118.13" y1="69.16" x2="40" y2="78.01"/><path class="cls-4" d="M28.37,87.2,26.79,73.27a5.32,5.32,0,0,1,4.92-5.63l91.82-10.39a5.31,5.31,0,0,1,6.06,4.39l1.57,13.92"/><line class="cls-5" x1="45.93" y1="49.71" x2="47.13" y2="60.32"/><line class="cls-5" x1="75.78" y1="45.74" x2="77.05" y2="56.93"/><line class="cls-5" x1="105.88" y1="43.26" x2="107.05" y2="53.54"/><path class="cls-5" d="M47.31,43.89a2.07,2.07,0,1,1-4.11.46,6.48,6.48,0,0,1,1.63-4C45.8,41.13,47.17,42.67,47.31,43.89Z"/><path class="cls-5" d="M107.48,37.08a2.07,2.07,0,1,1-4.1.46,6.41,6.41,0,0,1,1.62-4C106,34.32,107.34,35.86,107.48,37.08Z"/><path class="cls-5" d="M77.43,38.13a2.42,2.42,0,1,1-4.8.54c-.17-1.43.9-3.48,1.9-4.67C75.67,34.9,77.27,36.7,77.43,38.13Z"/></g></g></svg>